<svg xmlns="http://www.w3.org/2000/svg" viewBox="0 0 100 100">
  <defs>
    <linearGradient id="grad" x1="0%" y1="0%" x2="100%" y2="100%">
      <stop offset="0%" style="stop-color:#38bdf8;stop-opacity:1" />
      <stop offset="100%" style="stop-color:#22d3ee;stop-opacity:1" />
    </linearGradient>
  </defs>
  <rect width="100" height="100" rx="20" fill="#0f172a" />
  <path d="M50 20c16.568 0 30 13.432 30 30S66.568 80 50 80 20 66.568 20 50 33.432 20 50 20zm0 10c-11.045 0-20 8.955-20 20s8.955 20 20 20 20-8.955 20-20-8.955-20-20-20zm0 8a12 12 0 1 1 0 24 12 12 0 0 1 0-24z" fill="url(#grad)" />
</svg>
